<svg width="199" height="41" viewBox="0 0 199 41" fill="none" xmlns="http://www.w3.org/2000/svg">
<rect x="0.5" y="1" width="198" height="39" rx="3.5" fill="#C2E5CE"/>
<path d="M19.63 21.118H14.478V25.5H13.162V15.462H14.478V19.928H19.63V15.462H20.96V25.5H19.63V21.118ZM26.1072 25.64C25.6125 25.64 25.1505 25.556 24.7212 25.388C24.2919 25.22 23.9185 24.9773 23.6012 24.66C23.2932 24.3333 23.0505 23.9367 22.8732 23.47C22.6959 23.0033 22.6072 22.4667 22.6072 21.86C22.6072 21.2627 22.6959 20.7307 22.8732 20.264C23.0505 19.788 23.2932 19.3913 23.6012 19.074C23.9185 18.7567 24.2919 18.514 24.7212 18.346C25.1505 18.178 25.6125 18.094 26.1072 18.094C26.6112 18.094 27.0779 18.178 27.5072 18.346C27.9365 18.514 28.3052 18.7567 28.6132 19.074C28.9305 19.3913 29.1779 19.788 29.3552 20.264C29.5419 20.7307 29.6352 21.2627 29.6352 21.86C29.6352 22.4667 29.5419 23.0033 29.3552 23.47C29.1779 23.9367 28.9305 24.3333 28.6132 24.66C28.3052 24.9773 27.9365 25.22 27.5072 25.388C27.0779 25.556 26.6112 25.64 26.1072 25.64ZM26.1072 24.534C26.4339 24.534 26.7325 24.4827 27.0032 24.38C27.2832 24.268 27.5259 24.1047 27.7312 23.89C27.9365 23.666 28.0952 23.386 28.2072 23.05C28.3192 22.714 28.3752 22.3173 28.3752 21.86C28.3752 21.4027 28.3192 21.006 28.2072 20.67C28.0952 20.334 27.9365 20.0587 27.7312 19.844C27.5259 19.62 27.2832 19.4567 27.0032 19.354C26.7325 19.242 26.4339 19.186 26.1072 19.186C25.7805 19.186 25.4819 19.242 25.2112 19.354C24.9405 19.4567 24.7025 19.62 24.4972 19.844C24.3012 20.0587 24.1472 20.334 24.0352 20.67C23.9232 21.006 23.8672 21.4027 23.8672 21.86C23.8672 22.3173 23.9232 22.714 24.0352 23.05C24.1472 23.386 24.3012 23.666 24.4972 23.89C24.7025 24.1047 24.9405 24.268 25.2112 24.38C25.4819 24.4827 25.7805 24.534 26.1072 24.534ZM31.1369 18.234H33.8529C34.7302 18.234 35.3929 18.388 35.8409 18.696C36.2889 18.9947 36.5129 19.466 36.5129 20.11C36.5129 20.5393 36.4009 20.8847 36.1769 21.146C35.9622 21.398 35.6542 21.58 35.2529 21.692C36.2889 21.86 36.8069 22.434 36.8069 23.414C36.8069 23.7873 36.7322 24.1093 36.5829 24.38C36.4336 24.6413 36.2282 24.856 35.9669 25.024C35.7056 25.192 35.3882 25.3133 35.0149 25.388C34.6509 25.4627 34.2542 25.5 33.8249 25.5H31.1369V18.234ZM32.3689 19.284V21.258H33.7409C34.2076 21.258 34.5809 21.174 34.8609 21.006C35.1502 20.838 35.2949 20.5953 35.2949 20.278C35.2949 19.8953 35.1689 19.634 34.9169 19.494C34.6649 19.354 34.3056 19.284 33.8389 19.284H32.3689ZM32.3689 22.238V24.45H33.8109C34.0722 24.45 34.3056 24.436 34.5109 24.408C34.7256 24.3707 34.9076 24.31 35.0569 24.226C35.2156 24.142 35.3369 24.03 35.4209 23.89C35.5049 23.75 35.5469 23.5773 35.5469 23.372C35.5469 22.952 35.4022 22.658 35.1129 22.49C34.8236 22.322 34.3896 22.238 33.8109 22.238H32.3689ZM44.0324 23.078C44.0324 23.498 43.9578 23.862 43.8084 24.17C43.6591 24.478 43.4491 24.73 43.1784 24.926C42.9078 25.122 42.5858 25.2667 42.2124 25.36C41.8391 25.4533 41.4331 25.5 40.9944 25.5H38.6564V18.234H39.8884V20.768H41.0784C42.0024 20.768 42.7258 20.95 43.2484 21.314C43.7711 21.678 44.0324 22.266 44.0324 23.078ZM46.3144 25.5H45.0824V18.234H46.3144V25.5ZM39.8884 21.818V24.45H40.9944C41.5264 24.45 41.9558 24.352 42.2824 24.156C42.6184 23.9507 42.7864 23.6147 42.7864 23.148C42.7864 22.672 42.6371 22.3313 42.3384 22.126C42.0398 21.9207 41.6198 21.818 41.0784 21.818H39.8884ZM51.5421 17.268C51.1688 17.268 50.8421 17.2213 50.5621 17.128C50.2915 17.0253 50.0628 16.89 49.8761 16.722C49.6988 16.5447 49.5635 16.344 49.4701 16.12C49.3861 15.8867 49.3441 15.6347 49.3441 15.364H50.5761C50.5761 15.7187 50.6601 15.9753 50.8281 16.134C51.0055 16.2927 51.2435 16.372 51.5421 16.372C51.8408 16.372 52.0741 16.2927 52.2421 16.134C52.4101 15.9753 52.4941 15.7187 52.4941 15.364H53.7261C53.7261 15.896 53.5441 16.3487 53.1801 16.722C52.8255 17.086 52.2795 17.268 51.5421 17.268ZM49.5681 23.82L53.4461 18.234H54.6921V25.5H53.4601V19.928L49.5961 25.5H48.3361V18.234H49.5681V23.82Z" fill="#1A1B22"/>
<path d="M181.707 16.7858C181.519 16.6028 181.265 16.5 180.999 16.5C180.734 16.5 180.479 16.6028 180.292 16.7858L175.702 21.262C175.511 21.4401 175.258 21.5396 174.994 21.5396C174.73 21.5396 174.477 21.4401 174.286 21.262L169.696 16.7858C169.507 16.608 169.255 16.5096 168.992 16.5118C168.73 16.514 168.479 16.6167 168.293 16.7977C168.108 16.9786 168.002 17.2234 168 17.4794C167.998 17.7353 168.099 17.9818 168.281 18.1659L172.87 22.6422C173.149 22.9141 173.48 23.1299 173.844 23.2771C174.209 23.4242 174.599 23.5 174.993 23.5C175.388 23.5 175.778 23.4242 176.143 23.2771C176.507 23.1299 176.838 22.9141 177.117 22.6422L181.707 18.1659C181.895 17.9829 182 17.7347 182 17.4759C182 17.217 181.895 16.9688 181.707 16.7858Z" fill="#797981"/>
<rect x="0.5" y="1" width="198" height="39" rx="3.5" stroke="#DDE0E4"/>
</svg>
