<svg width="199" height="41" viewBox="0 0 199 41" fill="none" xmlns="http://www.w3.org/2000/svg">
<rect x="0.5" y="1" width="198" height="39" rx="3.5" fill="#FFE1BD"/>
<path d="M19.63 21.118H14.478V25.5H13.162V15.462H14.478V19.928H19.63V15.462H20.96V25.5H19.63V21.118ZM27.3812 24.114C27.2972 24.282 27.1899 24.4593 27.0592 24.646C26.9285 24.8233 26.7652 24.9867 26.5692 25.136C26.3732 25.2853 26.1399 25.4067 25.8692 25.5C25.6079 25.5933 25.2999 25.64 24.9452 25.64C24.2919 25.64 23.7645 25.458 23.3632 25.094C22.9619 24.7207 22.7612 24.1887 22.7612 23.498C22.7612 22.7047 23.0365 22.1213 23.5872 21.748C24.1472 21.3747 24.9405 21.188 25.9672 21.188H27.3252V20.586C27.3252 20.082 27.1945 19.7227 26.9332 19.508C26.6719 19.2933 26.2239 19.186 25.5892 19.186C25.1412 19.186 24.7165 19.2607 24.3152 19.41C23.9139 19.55 23.5545 19.7133 23.2372 19.9V18.794C23.4985 18.6353 23.8485 18.4813 24.2872 18.332C24.7352 18.1733 25.2252 18.094 25.7572 18.094C26.6719 18.094 27.3672 18.2853 27.8432 18.668C28.3192 19.0413 28.5572 19.6247 28.5572 20.418V24.324C28.5572 24.408 28.5572 24.506 28.5572 24.618C28.5665 24.7207 28.5712 24.828 28.5712 24.94C28.5805 25.052 28.5899 25.1593 28.5992 25.262C28.6085 25.3553 28.6179 25.4347 28.6272 25.5H27.5072C27.4792 25.3693 27.4512 25.1873 27.4232 24.954C27.4045 24.7113 27.3952 24.5013 27.3952 24.324L27.3812 24.114ZM25.2112 24.534C25.5939 24.534 25.9205 24.4547 26.1912 24.296C26.4619 24.1373 26.6812 23.9553 26.8492 23.75C27.0172 23.5353 27.1385 23.33 27.2132 23.134C27.2879 22.9287 27.3252 22.784 27.3252 22.7V22.168H26.0932C25.3559 22.168 24.8192 22.2753 24.4832 22.49C24.1565 22.6953 23.9932 23.008 23.9932 23.428C23.9932 23.7547 24.0912 24.0207 24.2872 24.226C24.4832 24.4313 24.7912 24.534 25.2112 24.534ZM37.2245 25.64C36.6645 25.64 36.1792 25.5093 35.7685 25.248C35.3672 24.9867 35.0452 24.6273 34.8025 24.17V27.978H33.5705V18.234H34.6485L34.7745 19.648C35.0172 19.172 35.3438 18.794 35.7545 18.514C36.1652 18.234 36.6738 18.094 37.2805 18.094C37.7005 18.094 38.1018 18.1733 38.4845 18.332C38.8765 18.4813 39.2172 18.7147 39.5065 19.032C39.8052 19.34 40.0385 19.732 40.2065 20.208C40.3838 20.6747 40.4725 21.2253 40.4725 21.86C40.4725 22.504 40.3838 23.064 40.2065 23.54C40.0292 24.0067 39.7912 24.3987 39.4925 24.716C39.1938 25.024 38.8485 25.2573 38.4565 25.416C38.0645 25.5653 37.6538 25.64 37.2245 25.64ZM37.0425 24.534C37.6865 24.534 38.2045 24.3147 38.5965 23.876C38.9978 23.428 39.1985 22.756 39.1985 21.86C39.1985 20.9827 38.9978 20.32 38.5965 19.872C38.2045 19.4147 37.6865 19.186 37.0425 19.186C36.7252 19.186 36.4265 19.242 36.1465 19.354C35.8758 19.466 35.6378 19.634 35.4325 19.858C35.2365 20.0727 35.0778 20.348 34.9565 20.684C34.8445 21.02 34.7885 21.412 34.7885 21.86C34.7885 22.308 34.8445 22.7 34.9565 23.036C35.0778 23.372 35.2365 23.652 35.4325 23.876C35.6378 24.1 35.8758 24.268 36.1465 24.38C36.4265 24.4827 36.7252 24.534 37.0425 24.534ZM46.1527 24.114C46.0687 24.282 45.9613 24.4593 45.8307 24.646C45.7 24.8233 45.5367 24.9867 45.3407 25.136C45.1447 25.2853 44.9113 25.4067 44.6407 25.5C44.3793 25.5933 44.0713 25.64 43.7167 25.64C43.0633 25.64 42.536 25.458 42.1347 25.094C41.7333 24.7207 41.5327 24.1887 41.5327 23.498C41.5327 22.7047 41.808 22.1213 42.3587 21.748C42.9187 21.3747 43.712 21.188 44.7387 21.188H46.0967V20.586C46.0967 20.082 45.966 19.7227 45.7047 19.508C45.4433 19.2933 44.9953 19.186 44.3607 19.186C43.9127 19.186 43.488 19.2607 43.0867 19.41C42.6853 19.55 42.326 19.7133 42.0087 19.9V18.794C42.27 18.6353 42.62 18.4813 43.0587 18.332C43.5067 18.1733 43.9967 18.094 44.5287 18.094C45.4433 18.094 46.1387 18.2853 46.6147 18.668C47.0907 19.0413 47.3287 19.6247 47.3287 20.418V24.324C47.3287 24.408 47.3287 24.506 47.3287 24.618C47.338 24.7207 47.3427 24.828 47.3427 24.94C47.352 25.052 47.3613 25.1593 47.3707 25.262C47.38 25.3553 47.3893 25.4347 47.3987 25.5H46.2787C46.2507 25.3693 46.2227 25.1873 46.1947 24.954C46.176 24.7113 46.1667 24.5013 46.1667 24.324L46.1527 24.114ZM43.9827 24.534C44.3653 24.534 44.692 24.4547 44.9627 24.296C45.2333 24.1373 45.4527 23.9553 45.6207 23.75C45.7887 23.5353 45.91 23.33 45.9847 23.134C46.0593 22.9287 46.0967 22.784 46.0967 22.7V22.168H44.8647C44.1273 22.168 43.5907 22.2753 43.2547 22.49C42.928 22.6953 42.7647 23.008 42.7647 23.428C42.7647 23.7547 42.8627 24.0207 43.0587 24.226C43.2547 24.4313 43.5627 24.534 43.9827 24.534ZM52.4018 25.64C51.8418 25.64 51.3331 25.556 50.8758 25.388C50.4278 25.2107 50.0451 24.9633 49.7278 24.646C49.4105 24.3193 49.1678 23.9227 48.9998 23.456C48.8318 22.9893 48.7478 22.4573 48.7478 21.86C48.7478 21.272 48.8318 20.7447 48.9998 20.278C49.1771 19.8113 49.4245 19.4193 49.7418 19.102C50.0591 18.7753 50.4465 18.528 50.9038 18.36C51.3611 18.1827 51.8791 18.094 52.4578 18.094C52.9058 18.094 53.3165 18.1453 53.6898 18.248C54.0631 18.3413 54.3711 18.4813 54.6138 18.668V19.774C54.3151 19.578 53.9791 19.4333 53.6058 19.34C53.2418 19.2373 52.8638 19.186 52.4718 19.186C51.6225 19.186 50.9971 19.4053 50.5958 19.844C50.2038 20.2827 50.0078 20.9547 50.0078 21.86C50.0078 22.7653 50.1991 23.4373 50.5818 23.876C50.9645 24.3147 51.5711 24.534 52.4018 24.534C52.8405 24.534 53.2418 24.4827 53.6058 24.38C53.9791 24.268 54.3151 24.128 54.6138 23.96V25.066C54.3525 25.2247 54.0351 25.36 53.6618 25.472C53.2978 25.584 52.8778 25.64 52.4018 25.64ZM59.4018 25.64C58.8418 25.64 58.3331 25.556 57.8758 25.388C57.4278 25.2107 57.0451 24.9633 56.7278 24.646C56.4105 24.3193 56.1678 23.9227 55.9998 23.456C55.8318 22.9893 55.7478 22.4573 55.7478 21.86C55.7478 21.272 55.8318 20.7447 55.9998 20.278C56.1771 19.8113 56.4245 19.4193 56.7418 19.102C57.0591 18.7753 57.4465 18.528 57.9038 18.36C58.3611 18.1827 58.8791 18.094 59.4578 18.094C59.9058 18.094 60.3165 18.1453 60.6898 18.248C61.0631 18.3413 61.3711 18.4813 61.6138 18.668V19.774C61.3151 19.578 60.9791 19.4333 60.6058 19.34C60.2418 19.2373 59.8638 19.186 59.4718 19.186C58.6225 19.186 57.9971 19.4053 57.5958 19.844C57.2038 20.2827 57.0078 20.9547 57.0078 21.86C57.0078 22.7653 57.1991 23.4373 57.5818 23.876C57.9645 24.3147 58.5711 24.534 59.4018 24.534C59.8405 24.534 60.2418 24.4827 60.6058 24.38C60.9791 24.268 61.3151 24.128 61.6138 23.96V25.066C61.3525 25.2247 61.0351 25.36 60.6618 25.472C60.2978 25.584 59.8778 25.64 59.4018 25.64ZM70.1958 19.662L67.7318 24.688H66.7518L64.4278 19.634V25.5H63.2658V18.234H65.0998L67.3258 23.106L69.7058 18.234H71.4138V25.5H70.1958V19.662ZM76.406 25.64C75.9113 25.64 75.4493 25.556 75.02 25.388C74.5907 25.22 74.2173 24.9773 73.9 24.66C73.592 24.3333 73.3493 23.9367 73.172 23.47C72.9947 23.0033 72.906 22.4667 72.906 21.86C72.906 21.2627 72.9947 20.7307 73.172 20.264C73.3493 19.788 73.592 19.3913 73.9 19.074C74.2173 18.7567 74.5907 18.514 75.02 18.346C75.4493 18.178 75.9113 18.094 76.406 18.094C76.91 18.094 77.3767 18.178 77.806 18.346C78.2353 18.514 78.604 18.7567 78.912 19.074C79.2293 19.3913 79.4767 19.788 79.654 20.264C79.8407 20.7307 79.934 21.2627 79.934 21.86C79.934 22.4667 79.8407 23.0033 79.654 23.47C79.4767 23.9367 79.2293 24.3333 78.912 24.66C78.604 24.9773 78.2353 25.22 77.806 25.388C77.3767 25.556 76.91 25.64 76.406 25.64ZM76.406 24.534C76.7327 24.534 77.0313 24.4827 77.302 24.38C77.582 24.268 77.8247 24.1047 78.03 23.89C78.2353 23.666 78.394 23.386 78.506 23.05C78.618 22.714 78.674 22.3173 78.674 21.86C78.674 21.4027 78.618 21.006 78.506 20.67C78.394 20.334 78.2353 20.0587 78.03 19.844C77.8247 19.62 77.582 19.4567 77.302 19.354C77.0313 19.242 76.7327 19.186 76.406 19.186C76.0793 19.186 75.7807 19.242 75.51 19.354C75.2393 19.4567 75.0013 19.62 74.796 19.844C74.6 20.0587 74.446 20.334 74.334 20.67C74.222 21.006 74.166 21.4027 74.166 21.86C74.166 22.3173 74.222 22.714 74.334 23.05C74.446 23.386 74.6 23.666 74.796 23.89C75.0013 24.1047 75.2393 24.268 75.51 24.38C75.7807 24.4827 76.0793 24.534 76.406 24.534ZM84.1567 19.284V25.5H82.9247V19.284H80.6427V18.234H86.4807V19.284H84.1567ZM91.5565 25.64C90.9965 25.64 90.5112 25.5093 90.1005 25.248C89.6992 24.9867 89.3772 24.6273 89.1345 24.17V27.978H87.9025V18.234H88.9805L89.1065 19.648C89.3492 19.172 89.6759 18.794 90.0865 18.514C90.4972 18.234 91.0059 18.094 91.6125 18.094C92.0325 18.094 92.4339 18.1733 92.8165 18.332C93.2085 18.4813 93.5492 18.7147 93.8385 19.032C94.1372 19.34 94.3705 19.732 94.5385 20.208C94.7159 20.6747 94.8045 21.2253 94.8045 21.86C94.8045 22.504 94.7159 23.064 94.5385 23.54C94.3612 24.0067 94.1232 24.3987 93.8245 24.716C93.5259 25.024 93.1805 25.2573 92.7885 25.416C92.3965 25.5653 91.9859 25.64 91.5565 25.64ZM91.3745 24.534C92.0185 24.534 92.5365 24.3147 92.9285 23.876C93.3299 23.428 93.5305 22.756 93.5305 21.86C93.5305 20.9827 93.3299 20.32 92.9285 19.872C92.5365 19.4147 92.0185 19.186 91.3745 19.186C91.0572 19.186 90.7585 19.242 90.4785 19.354C90.2079 19.466 89.9699 19.634 89.7645 19.858C89.5685 20.0727 89.4099 20.348 89.2885 20.684C89.1765 21.02 89.1205 21.412 89.1205 21.86C89.1205 22.308 89.1765 22.7 89.2885 23.036C89.4099 23.372 89.5685 23.652 89.7645 23.876C89.9699 24.1 90.2079 24.268 90.4785 24.38C90.7585 24.4827 91.0572 24.534 91.3745 24.534ZM102.079 24.884C101.976 24.9587 101.85 25.038 101.701 25.122C101.552 25.206 101.37 25.29 101.155 25.374C100.94 25.4487 100.698 25.5093 100.427 25.556C100.156 25.612 99.8531 25.64 99.5171 25.64C98.2944 25.64 97.3657 25.3087 96.7311 24.646C96.0964 23.9833 95.7791 23.0547 95.7791 21.86C95.7791 21.272 95.8631 20.7447 96.0311 20.278C96.2084 19.8113 96.4511 19.4193 96.7591 19.102C97.0671 18.7753 97.4311 18.528 97.8511 18.36C98.2711 18.1827 98.7284 18.094 99.2231 18.094C99.7457 18.094 100.212 18.1827 100.623 18.36C101.034 18.5373 101.37 18.7987 101.631 19.144C101.902 19.4893 102.084 19.9187 102.177 20.432C102.28 20.936 102.28 21.524 102.177 22.196H97.0531C97.0997 22.98 97.3331 23.568 97.7531 23.96C98.1731 24.3427 98.7984 24.534 99.6291 24.534C100.189 24.534 100.67 24.4547 101.071 24.296C101.472 24.1373 101.808 23.9647 102.079 23.778V24.884ZM99.1951 19.186C98.6631 19.186 98.2057 19.3493 97.8231 19.676C97.4404 20.0027 97.1977 20.4973 97.0951 21.16H101.001C101.038 20.488 100.884 19.9933 100.539 19.676C100.194 19.3493 99.7457 19.186 99.1951 19.186ZM108.576 22.28H105.062V25.5H103.83V18.234H105.062V21.23H108.576V18.234H109.808V25.5H108.576V22.28ZM113.06 23.82L116.938 18.234H118.184V25.5H116.952V19.928L113.088 25.5H111.828V18.234H113.06V23.82ZM121.428 23.82L125.306 18.234H126.552V25.5H125.32V19.928L121.456 25.5H120.196V18.234H121.428V23.82Z" fill="#1A1B22"/>
<path d="M181.707 16.7858C181.519 16.6028 181.265 16.5 180.999 16.5C180.734 16.5 180.479 16.6028 180.292 16.7858L175.702 21.262C175.511 21.4401 175.258 21.5396 174.994 21.5396C174.73 21.5396 174.477 21.4401 174.286 21.262L169.696 16.7858C169.507 16.608 169.255 16.5096 168.992 16.5118C168.73 16.514 168.479 16.6167 168.293 16.7977C168.108 16.9786 168.002 17.2234 168 17.4794C167.998 17.7353 168.099 17.9818 168.281 18.1659L172.87 22.6422C173.149 22.9141 173.48 23.1299 173.844 23.2771C174.209 23.4242 174.599 23.5 174.993 23.5C175.388 23.5 175.778 23.4242 176.143 23.2771C176.507 23.1299 176.838 22.9141 177.117 22.6422L181.707 18.1659C181.895 17.9829 182 17.7347 182 17.4759C182 17.217 181.895 16.9688 181.707 16.7858Z" fill="#797981"/>
<rect x="0.5" y="1" width="198" height="39" rx="3.5" stroke="#DDE0E4"/>
</svg>
