<svg width="199" height="41" viewBox="0 0 199 41" fill="none" xmlns="http://www.w3.org/2000/svg">
<rect x="0.5" y="1" width="198" height="39" rx="3.5" fill="#FFDDE5"/>
<path d="M17.39 25.64C16.718 25.64 16.088 25.528 15.5 25.304C14.912 25.0707 14.4033 24.7347 13.974 24.296C13.5447 23.8573 13.204 23.316 12.952 22.672C12.7093 22.028 12.588 21.286 12.588 20.446C12.588 19.606 12.7093 18.8687 12.952 18.234C13.204 17.59 13.5447 17.058 13.974 16.638C14.4033 16.2087 14.912 15.8867 15.5 15.672C16.088 15.448 16.718 15.336 17.39 15.336C18.0713 15.336 18.706 15.448 19.294 15.672C19.882 15.8867 20.3907 16.2087 20.82 16.638C21.2493 17.0673 21.5853 17.604 21.828 18.248C22.0707 18.8827 22.192 19.62 22.192 20.46C22.192 21.2907 22.0707 22.028 21.828 22.672C21.5853 23.316 21.2493 23.8573 20.82 24.296C20.3907 24.7347 19.882 25.0707 19.294 25.304C18.706 25.528 18.0713 25.64 17.39 25.64ZM17.39 24.45C17.8753 24.45 18.3233 24.38 18.734 24.24C19.1447 24.0907 19.4993 23.862 19.798 23.554C20.106 23.2367 20.344 22.826 20.512 22.322C20.6893 21.818 20.778 21.2067 20.778 20.488C20.778 19.7693 20.6893 19.158 20.512 18.654C20.344 18.15 20.106 17.744 19.798 17.436C19.4993 17.1187 19.1447 16.89 18.734 16.75C18.3233 16.6007 17.8753 16.526 17.39 16.526C16.9047 16.526 16.4567 16.6007 16.046 16.75C15.6353 16.89 15.276 17.1187 14.968 17.436C14.6693 17.744 14.4313 18.15 14.254 18.654C14.086 19.158 14.002 19.7693 14.002 20.488C14.002 21.2067 14.086 21.818 14.254 22.322C14.4313 22.826 14.6693 23.2367 14.968 23.554C15.276 23.862 15.6353 24.0907 16.046 24.24C16.4567 24.38 16.9047 24.45 17.39 24.45ZM26.7074 19.284V25.5H25.4754V19.284H23.1934V18.234H29.0314V19.284H26.7074ZM32.3293 22.406H31.6853V25.5H30.4533V18.234H31.6853V21.356H32.3853L34.9333 18.234H36.3333L33.3513 21.818L36.3893 25.5H34.8913L32.3293 22.406ZM41.805 24.114C41.721 24.282 41.6137 24.4593 41.483 24.646C41.3523 24.8233 41.189 24.9867 40.993 25.136C40.797 25.2853 40.5637 25.4067 40.293 25.5C40.0317 25.5933 39.7237 25.64 39.369 25.64C38.7157 25.64 38.1883 25.458 37.787 25.094C37.3857 24.7207 37.185 24.1887 37.185 23.498C37.185 22.7047 37.4603 22.1213 38.011 21.748C38.571 21.3747 39.3643 21.188 40.391 21.188H41.749V20.586C41.749 20.082 41.6183 19.7227 41.357 19.508C41.0957 19.2933 40.6477 19.186 40.013 19.186C39.565 19.186 39.1403 19.2607 38.739 19.41C38.3377 19.55 37.9783 19.7133 37.661 19.9V18.794C37.9223 18.6353 38.2723 18.4813 38.711 18.332C39.159 18.1733 39.649 18.094 40.181 18.094C41.0957 18.094 41.791 18.2853 42.267 18.668C42.743 19.0413 42.981 19.6247 42.981 20.418V24.324C42.981 24.408 42.981 24.506 42.981 24.618C42.9903 24.7207 42.995 24.828 42.995 24.94C43.0043 25.052 43.0137 25.1593 43.023 25.262C43.0323 25.3553 43.0417 25.4347 43.051 25.5H41.931C41.903 25.3693 41.875 25.1873 41.847 24.954C41.8283 24.7113 41.819 24.5013 41.819 24.324L41.805 24.114ZM39.635 24.534C40.0177 24.534 40.3443 24.4547 40.615 24.296C40.8857 24.1373 41.105 23.9553 41.273 23.75C41.441 23.5353 41.5623 23.33 41.637 23.134C41.7117 22.9287 41.749 22.784 41.749 22.7V22.168H40.517C39.7797 22.168 39.243 22.2753 38.907 22.49C38.5803 22.6953 38.417 23.008 38.417 23.428C38.417 23.7547 38.515 24.0207 38.711 24.226C38.907 24.4313 39.215 24.534 39.635 24.534ZM50.0702 23.386C50.0702 23.7967 49.9862 24.1467 49.8182 24.436C49.6595 24.716 49.4402 24.9493 49.1602 25.136C48.8802 25.3133 48.5535 25.4393 48.1802 25.514C47.8162 25.598 47.4335 25.64 47.0322 25.64C46.5002 25.64 46.0288 25.584 45.6182 25.472C45.2168 25.36 44.8995 25.2247 44.6662 25.066V23.96C44.9555 24.1373 45.3008 24.2773 45.7022 24.38C46.1035 24.4827 46.5375 24.534 47.0042 24.534C47.5362 24.534 47.9795 24.45 48.3342 24.282C48.6982 24.1047 48.8802 23.806 48.8802 23.386C48.8802 22.9753 48.7262 22.686 48.4182 22.518C48.1195 22.35 47.6575 22.266 47.0322 22.266H46.0662V21.272H47.0742C47.5875 21.272 47.9795 21.1787 48.2502 20.992C48.5208 20.8053 48.6562 20.5347 48.6562 20.18C48.6562 19.9933 48.6095 19.8393 48.5162 19.718C48.4322 19.5873 48.3155 19.4847 48.1662 19.41C48.0168 19.326 47.8395 19.27 47.6342 19.242C47.4382 19.2047 47.2282 19.186 47.0042 19.186C46.5748 19.186 46.1735 19.2373 45.8002 19.34C45.4362 19.4427 45.1048 19.5873 44.8062 19.774V18.668C45.0488 18.5093 45.3615 18.374 45.7442 18.262C46.1362 18.15 46.5888 18.094 47.1022 18.094C47.9888 18.094 48.6562 18.262 49.1042 18.598C49.5615 18.934 49.7902 19.4193 49.7902 20.054C49.7902 20.53 49.6595 20.9033 49.3982 21.174C49.1462 21.4447 48.7868 21.6313 48.3202 21.734C48.8988 21.8087 49.3328 21.9907 49.6222 22.28C49.9208 22.5693 50.0702 22.938 50.0702 23.386Z" fill="#1A1B22"/>
<path d="M181.707 16.7858C181.519 16.6028 181.265 16.5 180.999 16.5C180.734 16.5 180.479 16.6028 180.292 16.7858L175.702 21.262C175.511 21.4401 175.258 21.5396 174.994 21.5396C174.73 21.5396 174.477 21.4401 174.286 21.262L169.696 16.7858C169.507 16.608 169.255 16.5096 168.992 16.5118C168.73 16.514 168.479 16.6167 168.293 16.7977C168.108 16.9786 168.002 17.2234 168 17.4794C167.998 17.7353 168.099 17.9818 168.281 18.1659L172.87 22.6422C173.149 22.9141 173.48 23.1299 173.844 23.2771C174.209 23.4242 174.599 23.5 174.993 23.5C175.388 23.5 175.778 23.4242 176.143 23.2771C176.507 23.1299 176.838 22.9141 177.117 22.6422L181.707 18.1659C181.895 17.9829 182 17.7347 182 17.4759C182 17.217 181.895 16.9688 181.707 16.7858Z" fill="#797981"/>
<rect x="0.5" y="1" width="198" height="39" rx="3.5" stroke="#DDE0E4"/>
</svg>
