<svg width="24" height="24" viewBox="0 0 24 24" fill="none" xmlns="http://www.w3.org/2000/svg">
<path d="M12.5177 5.30824C13.0132 4.74975 13.6157 4.29624 14.2894 3.97449C14.9632 3.65274 15.6946 3.46928 16.4404 3.43495C17.1863 3.40062 17.9314 3.51611 18.6319 3.7746C19.3323 4.0331 19.9739 4.42935 20.5186 4.93995C21.0634 5.45055 21.5003 6.06515 21.8035 6.74743C22.1067 7.42972 22.2701 8.16586 22.2841 8.91236C22.298 9.65886 22.1622 10.4006 21.8847 11.0937C21.6072 11.7869 21.1936 12.4174 20.6683 12.948L12.4568 21.2382C12.3971 21.2986 12.3259 21.3466 12.2475 21.3793C12.1691 21.412 12.085 21.4288 12 21.4288C11.915 21.4288 11.8309 21.412 11.7525 21.3793C11.6741 21.3466 11.6029 21.2986 11.5431 21.2382L3.3317 12.948C2.33569 11.9424 1.75846 10.5963 1.71662 9.18153C1.67477 7.7668 2.17144 6.38892 3.10628 5.32624C5.32456 2.80367 9.25199 2.7951 11.4823 5.30824L12 5.8911L12.5177 5.30824Z" fill="#1D6BF3"/>
</svg>
