<svg width="24" height="24" viewBox="0 0 24 24" fill="none" xmlns="http://www.w3.org/2000/svg">
<rect width="24" height="24" fill="white"/>
<path fill-rule="evenodd" clip-rule="evenodd" d="M4.89791 4.76465V10.3497C5.74823 9.33591 6.76723 8.82511 7.94965 8.82511C8.55839 8.82511 9.10434 8.94084 9.59242 9.17214C10.0831 9.40111 10.4502 9.69555 10.6968 10.0528C10.9459 10.4126 11.1145 10.8075 11.2049 11.2427C11.2957 11.6756 11.341 12.3497 11.341 13.2629V19.2354H8.69935V13.8566C8.69935 12.79 8.6514 12.1132 8.55087 11.8263C8.45025 11.5371 8.27405 11.3106 8.02004 11.1421C7.76585 10.9711 7.44895 10.8854 7.06659 10.8854C6.62887 10.8854 6.23631 10.9961 5.89429 11.2126C5.54725 11.4314 5.29556 11.7585 5.13707 12.1962C4.9759 12.6341 4.89531 13.2805 4.898 14.136L4.89531 19.2355H2.25635V4.76465H4.89791ZM15.3008 4.76465V10.3497C16.1509 9.33591 17.17 8.82511 18.3522 8.82511C18.9586 8.82511 19.5069 8.94084 19.9978 9.17214C20.4857 9.40111 20.853 9.69555 21.0994 10.0528C21.3485 10.4126 21.5171 10.8075 21.6077 11.2427C21.6983 11.6756 21.7437 12.3497 21.7437 13.2629V19.2354H19.1044V13.8566C19.1044 12.79 19.0543 12.1132 18.9535 11.8263C18.8528 11.5371 18.6769 11.3106 18.4226 11.1421C18.171 10.9711 17.8514 10.8854 17.4692 10.8854C17.0313 10.8854 16.639 10.9961 16.2968 11.2126C15.9522 11.4314 15.7006 11.7585 15.5395 12.1962C15.381 12.6341 15.3007 13.2805 15.3007 14.136V19.2355H12.6615V4.76465H15.3007H15.3008Z" fill="#1A1B22"/>
</svg>
