<svg width="108" height="64" viewBox="0 0 108 64" fill="none" xmlns="http://www.w3.org/2000/svg">
<path d="M49.058 23.078C49.058 24.0207 48.974 24.87 48.806 25.626C48.6473 26.3727 48.4 27.0073 48.064 27.53C47.7373 28.0527 47.3173 28.454 46.804 28.734C46.2907 29.0047 45.684 29.14 44.984 29.14C44.4707 29.14 44.046 29.0933 43.71 29C43.3833 28.8973 43.0893 28.7713 42.828 28.622V27.39C43.4627 27.8007 44.1813 28.006 44.984 28.006C45.4133 28.006 45.7913 27.9173 46.118 27.74C46.454 27.5533 46.734 27.3013 46.958 26.984C47.1913 26.6573 47.3733 26.2747 47.504 25.836C47.6347 25.3973 47.7187 24.926 47.756 24.422C47.4667 24.786 47.1213 25.0567 46.72 25.234C46.3187 25.402 45.8847 25.486 45.418 25.486C44.97 25.486 44.55 25.416 44.158 25.276C43.766 25.1267 43.4253 24.912 43.136 24.632C42.8467 24.352 42.618 24.0067 42.45 23.596C42.2913 23.1853 42.212 22.714 42.212 22.182C42.212 21.678 42.296 21.2207 42.464 20.81C42.6413 20.3993 42.8793 20.0493 43.178 19.76C43.4767 19.4613 43.8267 19.2327 44.228 19.074C44.6387 18.906 45.0773 18.822 45.544 18.822C46.1693 18.822 46.706 18.9293 47.154 19.144C47.602 19.3493 47.966 19.6387 48.246 20.012C48.526 20.3853 48.7313 20.8333 48.862 21.356C48.9927 21.8787 49.058 22.4527 49.058 23.078ZM45.586 19.956C45.3153 19.956 45.054 20.0027 44.802 20.096C44.5593 20.1893 44.3447 20.3293 44.158 20.516C43.9713 20.6933 43.822 20.922 43.71 21.202C43.598 21.4727 43.542 21.79 43.542 22.154C43.542 22.518 43.5933 22.84 43.696 23.12C43.808 23.4 43.9527 23.638 44.13 23.834C44.3167 24.0207 44.522 24.1607 44.746 24.254C44.97 24.3473 45.2033 24.394 45.446 24.394C45.754 24.394 46.0387 24.3473 46.3 24.254C46.5707 24.1513 46.7993 24.0067 46.986 23.82C47.182 23.624 47.336 23.386 47.448 23.106C47.56 22.826 47.616 22.4993 47.616 22.126C47.616 21.4727 47.434 20.95 47.07 20.558C46.706 20.1567 46.2113 19.956 45.586 19.956ZM53.3253 29.14C52.8493 29.14 52.4059 29.042 51.9953 28.846C51.5939 28.6407 51.2439 28.328 50.9453 27.908C50.6559 27.4787 50.4273 26.942 50.2593 26.298C50.0913 25.6447 50.0073 24.87 50.0073 23.974C50.0073 23.078 50.0913 22.308 50.2593 21.664C50.4273 21.0107 50.6559 20.474 50.9453 20.054C51.2439 19.634 51.5939 19.326 51.9953 19.13C52.4059 18.934 52.8493 18.836 53.3253 18.836C53.8013 18.836 54.2399 18.934 54.6413 19.13C55.0426 19.326 55.3879 19.634 55.6773 20.054C55.9666 20.4647 56.1906 20.992 56.3493 21.636C56.5173 22.28 56.6013 23.05 56.6013 23.946C56.6013 24.842 56.5173 25.6167 56.3493 26.27C56.1906 26.914 55.9666 27.4507 55.6773 27.88C55.3879 28.3093 55.0426 28.6267 54.6413 28.832C54.2399 29.0373 53.8013 29.14 53.3253 29.14ZM53.3113 28.034C53.6286 28.034 53.9086 27.964 54.1513 27.824C54.3939 27.684 54.5993 27.4553 54.7673 27.138C54.9353 26.8207 55.0613 26.4053 55.1453 25.892C55.2386 25.3693 55.2853 24.7347 55.2853 23.988C55.2853 23.2413 55.2433 22.6113 55.1593 22.098C55.0753 21.5753 54.9493 21.1553 54.7813 20.838C54.6133 20.5207 54.4079 20.292 54.1653 20.152C53.9226 20.012 53.6426 19.942 53.3253 19.942C53.0079 19.942 52.7233 20.012 52.4713 20.152C52.2286 20.292 52.0186 20.5207 51.8413 20.838C51.6733 21.1553 51.5426 21.5753 51.4493 22.098C51.3653 22.6113 51.3233 23.2413 51.3233 23.988C51.3233 24.7347 51.3653 25.3693 51.4493 25.892C51.5426 26.4053 51.6733 26.8207 51.8413 27.138C52.0093 27.4553 52.2146 27.684 52.4573 27.824C52.7093 27.964 52.9939 28.034 53.3113 28.034ZM57.9145 29.14L64.3685 18.836H65.4605L59.0065 29.14H57.9145ZM61.1625 21.454C61.1625 21.902 61.1112 22.2893 61.0085 22.616C60.9059 22.9427 60.7659 23.2133 60.5885 23.428C60.4112 23.6333 60.2059 23.7873 59.9725 23.89C59.7392 23.9927 59.4919 24.044 59.2305 24.044C58.9692 24.044 58.7219 23.9973 58.4885 23.904C58.2645 23.8013 58.0639 23.652 57.8865 23.456C57.7185 23.2507 57.5832 22.9893 57.4805 22.672C57.3779 22.3453 57.3265 21.958 57.3265 21.51C57.3265 21.062 57.3779 20.6747 57.4805 20.348C57.5832 20.0213 57.7185 19.7507 57.8865 19.536C58.0639 19.312 58.2645 19.1487 58.4885 19.046C58.7219 18.9433 58.9692 18.892 59.2305 18.892C59.4919 18.892 59.7392 18.9433 59.9725 19.046C60.2059 19.1393 60.4112 19.2933 60.5885 19.508C60.7659 19.7133 60.9059 19.9793 61.0085 20.306C61.1112 20.6233 61.1625 21.006 61.1625 21.454ZM58.3905 21.482C58.3905 22.098 58.4605 22.532 58.6005 22.784C58.7405 23.0267 58.9505 23.148 59.2305 23.148C59.5199 23.148 59.7345 23.0267 59.8745 22.784C60.0145 22.532 60.0845 22.098 60.0845 21.482C60.0845 20.866 60.0145 20.432 59.8745 20.18C59.7345 19.928 59.5199 19.802 59.2305 19.802C58.9505 19.802 58.7405 19.928 58.6005 20.18C58.4605 20.432 58.3905 20.866 58.3905 21.482ZM66.0625 26.494C66.0625 26.942 66.0112 27.3293 65.9085 27.656C65.8059 27.9733 65.6659 28.2393 65.4885 28.454C65.3205 28.6687 65.1152 28.8273 64.8725 28.93C64.6392 29.0327 64.3919 29.084 64.1305 29.084C63.8692 29.084 63.6219 29.0373 63.3885 28.944C63.1645 28.8413 62.9639 28.692 62.7865 28.496C62.6185 28.2907 62.4832 28.0293 62.3805 27.712C62.2779 27.3853 62.2265 26.998 62.2265 26.55C62.2265 26.102 62.2779 25.7147 62.3805 25.388C62.4832 25.0613 62.6185 24.7907 62.7865 24.576C62.9639 24.352 63.1645 24.1887 63.3885 24.086C63.6219 23.9833 63.8692 23.932 64.1305 23.932C64.3919 23.932 64.6392 23.9833 64.8725 24.086C65.1152 24.1793 65.3205 24.3333 65.4885 24.548C65.6659 24.7533 65.8059 25.0193 65.9085 25.346C66.0112 25.6633 66.0625 26.046 66.0625 26.494ZM63.3045 26.522C63.3045 27.138 63.3699 27.572 63.5005 27.824C63.6405 28.0667 63.8505 28.188 64.1305 28.188C64.4292 28.188 64.6439 28.0667 64.7745 27.824C64.9145 27.572 64.9845 27.138 64.9845 26.522C64.9845 25.906 64.9145 25.472 64.7745 25.22C64.6439 24.968 64.4292 24.842 64.1305 24.842C63.8505 24.842 63.6405 24.968 63.5005 25.22C63.3699 25.472 63.3045 25.906 63.3045 26.522Z" fill="#1A1B22"/>
<rect x="25" y="34" width="4" height="12" fill="#87CC9E"/>
<rect x="31" y="34" width="4" height="12" fill="#87CC9E"/>
<rect x="37" y="34" width="4" height="12" fill="#87CC9E"/>
<rect x="43" y="34" width="4" height="12" fill="#87CC9E"/>
<rect x="49" y="34" width="4" height="12" fill="#87CC9E"/>
<rect x="55" y="34" width="4" height="12" fill="#87CC9E"/>
<rect x="61" y="34" width="4" height="12" fill="#87CC9E"/>
<rect x="67" y="34" width="4" height="12" fill="#87CC9E"/>
<rect x="73" y="34" width="4" height="12" fill="#87CC9E"/>
<rect x="79" y="34" width="4" height="12" fill="#DDE0E4"/>
</svg>
