<svg width="24" height="24" viewBox="0 0 24 24" fill="none" xmlns="http://www.w3.org/2000/svg">
<path d="M8.68408 13.3421C8.88608 12.9381 9.00008 12.4821 9.00008 12.0001C9.00008 11.5181 8.88608 11.0621 8.68408 10.6581M8.68408 13.3421C8.38178 13.9465 7.88428 14.4311 7.27217 14.7175C6.66007 15.0038 5.96921 15.0751 5.31152 14.9198C4.65384 14.7645 4.06785 14.3917 3.64849 13.8618C3.22914 13.3319 3.00098 12.6759 3.00098 12.0001C3.00098 11.3243 3.22914 10.6684 3.64849 10.1384C4.06785 9.60853 4.65384 9.23572 5.31152 9.08041C5.96921 8.92511 6.66007 8.9964 7.27217 9.28275C7.88428 9.5691 8.38178 10.0537 8.68408 10.6581M8.68408 13.3421L15.3161 16.6581M8.68408 10.6581L15.3161 7.34211M15.3161 16.6581C14.9602 17.37 14.9016 18.194 15.1533 18.9491C15.4049 19.7041 15.9462 20.3282 16.6581 20.6841C17.3699 21.04 18.194 21.0986 18.949 20.8469C19.704 20.5953 20.3282 20.054 20.6841 19.3421C21.04 18.6303 21.0986 17.8062 20.8469 17.0512C20.5952 16.2962 20.0539 15.672 19.3421 15.3161C18.9896 15.1399 18.6059 15.0348 18.2128 15.0069C17.8197 14.9789 17.425 15.0287 17.0511 15.1533C16.2961 15.405 15.672 15.9463 15.3161 16.6581ZM15.3161 7.34211C15.4923 7.69452 15.7362 8.00876 16.0339 8.26689C16.3316 8.52503 16.6772 8.722 17.051 8.84657C17.4248 8.97114 17.8195 9.02087 18.2125 8.99291C18.6055 8.96495 18.9892 8.85985 19.3416 8.68361C19.694 8.50738 20.0082 8.26346 20.2664 7.96578C20.5245 7.66811 20.7215 7.3225 20.846 6.9487C20.9706 6.5749 21.0203 6.18022 20.9924 5.7872C20.9644 5.39418 20.8593 5.01052 20.6831 4.65811C20.3272 3.94641 19.7031 3.40524 18.9482 3.15366C18.1932 2.90208 17.3693 2.96069 16.6576 3.31661C15.9459 3.67253 15.4047 4.2966 15.1531 5.05153C14.9015 5.80646 14.9602 6.63041 15.3161 7.34211Z" stroke="#1A1B22" stroke-width="2" stroke-linecap="round" stroke-linejoin="round"/>
</svg>
