<svg width="25" height="25" viewBox="0 0 25 25" fill="none" xmlns="http://www.w3.org/2000/svg">
<path d="M18.4837 15.5C18.2183 15.4999 17.9637 15.3967 17.7761 15.2129L13.186 10.7185C12.9957 10.5397 12.7421 10.4398 12.4783 10.4398C12.2146 10.4398 11.961 10.5397 11.7707 10.7185L7.1806 15.2129C6.99183 15.3914 6.739 15.4902 6.47657 15.4879C6.21414 15.4857 5.9631 15.3826 5.77753 15.2009C5.59196 15.0192 5.48669 14.7734 5.48441 14.5165C5.48213 14.2595 5.58302 14.012 5.76534 13.8271L10.3554 9.33282C10.9276 8.79825 11.688 8.5 12.4788 8.5C13.2697 8.5 14.0301 8.79825 14.6022 9.33282L19.1913 13.8271C19.3313 13.9642 19.4266 14.1388 19.4652 14.3289C19.5038 14.5189 19.4839 14.716 19.4082 14.895C19.3325 15.074 19.2042 15.2271 19.0396 15.3348C18.8751 15.4425 18.6816 15.5 18.4837 15.5Z" fill="#1A1B22"/>
</svg>
