<svg width="25" height="25" viewBox="0 0 25 25" fill="none" xmlns="http://www.w3.org/2000/svg">
<path d="M8.93976 5.2994C8.75229 5.48709 8.64697 5.74163 8.64697 6.00703C8.64697 6.27243 8.75229 6.52697 8.93976 6.71466L13.5258 11.3048C13.7082 11.4951 13.8102 11.7486 13.8102 12.0124C13.8102 12.2762 13.7082 12.5297 13.5258 12.72L8.93976 17.3101C8.7576 17.4989 8.65681 17.7517 8.65909 18.0142C8.66136 18.2766 8.76653 18.5276 8.95194 18.7132C9.13735 18.8988 9.38816 19.004 9.65036 19.0063C9.91256 19.0086 10.1652 18.9077 10.3538 18.7254L14.9398 14.1363C15.2184 13.8575 15.4394 13.5264 15.5902 13.1621C15.741 12.7977 15.8186 12.4073 15.8186 12.0129C15.8186 11.6185 15.741 11.228 15.5902 10.8637C15.4394 10.4994 15.2184 10.1683 14.9398 9.88949L10.3538 5.29939C10.1662 5.11176 9.91192 5.00635 9.64676 5.00635C9.38159 5.00635 9.12729 5.11176 8.93976 5.2994Z" fill="#1A1B22"/>
</svg>
