<svg width="24" height="25" viewBox="0 0 24 25" fill="none" xmlns="http://www.w3.org/2000/svg">
<path d="M18.707 8.78578C18.5193 8.60279 18.2647 8.5 17.9993 8.5C17.7339 8.5 17.4794 8.60279 17.2917 8.78578L12.7016 13.262C12.5113 13.4401 12.2577 13.5396 11.994 13.5396C11.7302 13.5396 11.4766 13.4401 11.2863 13.262L6.69623 8.78578C6.50746 8.60798 6.25463 8.5096 5.9922 8.51182C5.72977 8.51405 5.47873 8.6167 5.29316 8.79767C5.10758 8.97864 5.00232 9.22345 5.00004 9.47937C4.99776 9.73529 5.09864 9.98185 5.28096 10.1659L9.87006 14.6422C10.1489 14.9141 10.4799 15.1299 10.8443 15.2771C11.2086 15.4242 11.5991 15.5 11.9935 15.5C12.3878 15.5 12.7783 15.4242 13.1427 15.2771C13.507 15.1299 13.838 14.9141 14.1169 14.6422L18.707 10.1659C18.8946 9.9829 19 9.73467 19 9.47586C19 9.21704 18.8946 8.96882 18.707 8.78578Z" fill="#797981"/>
</svg>
