<svg width="24" height="24" viewBox="0 0 24 24" fill="none" xmlns="http://www.w3.org/2000/svg">
<path d="M15.5774 5.93462C15.5774 6.19981 15.472 6.45413 15.2844 6.64162L10.6984 11.2276C10.516 11.4178 10.4141 11.6711 10.4141 11.9346C10.4141 12.1982 10.516 12.4515 10.6984 12.6416L15.2844 17.2276C15.4666 17.4162 15.5674 17.6688 15.5651 17.931C15.5628 18.1932 15.4577 18.444 15.2723 18.6294C15.0869 18.8148 14.836 18.92 14.5738 18.9223C14.3116 18.9246 14.059 18.8238 13.8704 18.6416L9.28444 14.0556C8.73897 13.484 8.43463 12.7242 8.43463 11.9341C8.43463 11.144 8.73897 10.3842 9.28444 9.81262L13.8704 5.22762C14.0103 5.08781 14.1885 4.9926 14.3824 4.95404C14.5764 4.91547 14.7774 4.93527 14.9601 5.01094C15.1428 5.08661 15.299 5.21475 15.4088 5.37916C15.5187 5.54357 15.5774 5.73687 15.5774 5.93462Z" fill="#1D6BF3"/>
</svg>
