<svg width="12" height="12" viewBox="0 0 12 12" fill="none" xmlns="http://www.w3.org/2000/svg">
<g clip-path="url(#clip0_733_1196)">
<path d="M4.9379 2.64652C4.84416 2.74037 4.7915 2.86764 4.7915 3.00034C4.7915 3.13304 4.84416 3.26031 4.9379 3.35416L7.2309 5.64921C7.32214 5.74436 7.37309 5.87113 7.37309 6.00302C7.37309 6.13491 7.32214 6.26169 7.2309 6.35684L4.9379 8.65189C4.84682 8.74627 4.79642 8.87269 4.79756 9.0039C4.7987 9.13512 4.85128 9.26064 4.94399 9.35342C5.03669 9.44621 5.1621 9.49884 5.2932 9.49998C5.4243 9.50112 5.5506 9.45068 5.6449 9.35952L7.9379 7.06497C8.07721 6.92555 8.18772 6.76004 8.26312 6.57787C8.33852 6.3957 8.37733 6.20045 8.37733 6.00327C8.37733 5.80609 8.33852 5.61084 8.26312 5.42867C8.18772 5.24651 8.07721 5.08099 7.9379 4.94157L5.6449 2.64652C5.55113 2.5527 5.42398 2.5 5.2914 2.5C5.15881 2.5 5.03166 2.5527 4.9379 2.64652Z" fill="#DDE0E4"/>
<circle cx="6" cy="6" r="5.5" stroke="#DDE0E4"/>
</g>
<defs>
<clipPath id="clip0_733_1196">
<rect width="12" height="12" fill="white"/>
</clipPath>
</defs>
</svg>
