<svg width="25" height="25" viewBox="0 0 25 25" fill="none" xmlns="http://www.w3.org/2000/svg">
<path d="M16.5461 6.4346C16.5461 6.6998 16.4407 6.95411 16.2531 7.1416L11.6671 11.7276C11.4846 11.9177 11.3827 12.1711 11.3827 12.4346C11.3827 12.6981 11.4846 12.9515 11.6671 13.1416L16.2531 17.7276C16.4353 17.9162 16.5361 18.1688 16.5338 18.431C16.5315 18.6932 16.4264 18.944 16.241 19.1294C16.0555 19.3148 15.8047 19.42 15.5425 19.4223C15.2803 19.4246 15.0277 19.3238 14.8391 19.1416L10.2531 14.5556C9.70766 13.984 9.40332 13.2242 9.40332 12.4341C9.40332 11.644 9.70766 10.8842 10.2531 10.3126L14.8391 5.7276C14.979 5.58779 15.1571 5.49259 15.3511 5.45402C15.5451 5.41545 15.7461 5.43525 15.9288 5.51092C16.1115 5.58659 16.2676 5.71473 16.3775 5.87914C16.4874 6.04355 16.5461 6.23685 16.5461 6.4346Z" fill="#1A1B22"/>
</svg>
