<svg width="16" height="16" viewBox="0 0 16 16" fill="none" xmlns="http://www.w3.org/2000/svg">
<path d="M7.33337 7.32006C7.33337 7.14325 7.40361 6.97368 7.52864 6.84865C7.65366 6.72363 7.82323 6.65339 8.00004 6.65339C8.17685 6.65339 8.34642 6.72363 8.47145 6.84865C8.59647 6.97368 8.66671 7.14325 8.66671 7.32006V11.3201C8.66671 11.4969 8.59647 11.6664 8.47145 11.7915C8.34642 11.9165 8.17685 11.9867 8.00004 11.9867C7.82323 11.9867 7.65366 11.9165 7.52864 11.7915C7.40361 11.6664 7.33337 11.4969 7.33337 11.3201V7.32006ZM8.00004 4.03406C7.82323 4.03406 7.65366 4.1043 7.52864 4.22932C7.40361 4.35434 7.33337 4.52391 7.33337 4.70072C7.33337 4.87754 7.40361 5.0471 7.52864 5.17213C7.65366 5.29715 7.82323 5.36739 8.00004 5.36739C8.17685 5.36739 8.34642 5.29715 8.47145 5.17213C8.59647 5.0471 8.66671 4.87754 8.66671 4.70072C8.66671 4.52391 8.59647 4.35434 8.47145 4.22932C8.34642 4.1043 8.17685 4.03406 8.00004 4.03406Z" fill="#1A1B22"/>
<path fill-rule="evenodd" clip-rule="evenodd" d="M8.00004 1.33337C4.31804 1.33337 1.33337 4.31804 1.33337 8.00004C1.33337 11.682 4.31804 14.6667 8.00004 14.6667C11.682 14.6667 14.6667 11.682 14.6667 8.00004C14.6667 4.31804 11.682 1.33337 8.00004 1.33337ZM2.66671 8.00004C2.66671 9.41453 3.22861 10.7711 4.2288 11.7713C5.229 12.7715 6.58555 13.3334 8.00004 13.3334C9.41453 13.3334 10.7711 12.7715 11.7713 11.7713C12.7715 10.7711 13.3334 9.41453 13.3334 8.00004C13.3334 6.58555 12.7715 5.229 11.7713 4.2288C10.7711 3.22861 9.41453 2.66671 8.00004 2.66671C6.58555 2.66671 5.229 3.22861 4.2288 4.2288C3.22861 5.229 2.66671 6.58555 2.66671 8.00004Z" fill="#1A1B22"/>
</svg>
