<svg width="40" height="32" viewBox="0 0 40 32" fill="none" xmlns="http://www.w3.org/2000/svg">
<path d="M17.5214 11.001C17.1539 11.0005 16.7909 11.0873 16.4592 11.2551V10.626C16.4594 10.0004 16.2486 9.39521 15.8648 8.91959C15.4811 8.44397 14.9495 8.12917 14.3659 8.03192C13.7824 7.93466 13.1852 8.06134 12.682 8.38914C12.1789 8.71693 11.8028 9.22428 11.6216 9.81975C11.2441 9.60293 10.82 9.49367 10.3906 9.50269C9.96133 9.51172 9.5416 9.63871 9.17257 9.87122C8.80354 10.1037 8.49788 10.4338 8.28553 10.8291C8.07319 11.2243 7.96144 11.6712 7.96125 12.126V18.126L7.6231 17.5513C7.29466 16.951 6.75519 16.5129 6.1226 16.3326C5.49002 16.1523 4.81577 16.2446 4.24724 16.5893C3.67871 16.9339 3.26214 17.503 3.08858 18.172C2.91502 18.8409 2.99859 19.5555 3.32102 20.1594C4.73735 23.3254 5.88191 25.5707 7.19113 26.9741C8.51362 28.3954 10.0149 29.001 12.2102 29.001C14.2755 28.9985 16.2555 28.1285 17.7158 26.5819C19.1762 25.0353 19.9977 22.9383 20 20.751V13.626C20 12.9298 19.7389 12.2621 19.274 11.7698C18.8092 11.2776 18.1788 11.001 17.5214 11.001ZM18.5837 20.751C18.5818 22.5406 17.9097 24.2563 16.7149 25.5218C15.52 26.7872 13.9 27.499 12.2102 27.501C10.4062 27.501 9.24391 27.0435 8.1976 25.9213C7.02648 24.6641 5.9483 22.5323 4.58863 19.4929C4.58066 19.4743 4.5718 19.4561 4.56208 19.4385C4.42121 19.18 4.38307 18.8729 4.45603 18.5847C4.52899 18.2964 4.70708 18.0507 4.95112 17.9015C5.19517 17.7523 5.48517 17.7119 5.75734 17.7892C6.02951 17.8664 6.26155 18.055 6.40241 18.3135C6.40602 18.321 6.41016 18.3282 6.4148 18.3351L8.06748 21.1476C8.14866 21.2863 8.27037 21.3932 8.41412 21.452C8.55788 21.5109 8.71584 21.5185 8.86402 21.4736C9.01221 21.4287 9.14253 21.3339 9.23521 21.2035C9.3279 21.0731 9.37788 20.9142 9.37758 20.751V12.126C9.37758 11.8276 9.48949 11.5415 9.6887 11.3305C9.88791 11.1195 10.1581 11.001 10.4398 11.001C10.7215 11.001 10.9917 11.1195 11.1909 11.3305C11.3901 11.5415 11.5021 11.8276 11.5021 12.126V17.751C11.5021 17.9499 11.5767 18.1407 11.7095 18.2813C11.8423 18.422 12.0224 18.501 12.2102 18.501C12.398 18.501 12.5782 18.422 12.711 18.2813C12.8438 18.1407 12.9184 17.9499 12.9184 17.751V10.626C12.9184 10.3276 13.0303 10.0415 13.2295 9.83051C13.4287 9.61953 13.6989 9.501 13.9806 9.501C14.2624 9.501 14.5325 9.61953 14.7317 9.83051C14.931 10.0415 15.0429 10.3276 15.0429 10.626V17.751C15.0429 17.9499 15.1175 18.1407 15.2503 18.2813C15.3831 18.422 15.5632 18.501 15.751 18.501C15.9388 18.501 16.119 18.422 16.2518 18.2813C16.3846 18.1407 16.4592 17.9499 16.4592 17.751V13.626C16.4592 13.3276 16.5711 13.0415 16.7703 12.8305C16.9695 12.6195 17.2397 12.501 17.5214 12.501C17.8032 12.501 18.0733 12.6195 18.2726 12.8305C18.4718 13.0415 18.5837 13.3276 18.5837 13.626V20.751Z" fill="white"/>
<rect x="12" width="27" height="16" rx="8" fill="#FF0200"/>
<path d="M19.564 8.766V11.076H18.497V8.766H16.319V7.82H18.497V5.499H19.564V7.82H21.742V8.766H19.564ZM26.3489 12H25.0289V5.565L22.7849 7.237V5.917L25.2049 4.113H26.3489V12ZM33.7277 12H28.6347V10.735C29.2947 10.2217 29.8594 9.767 30.3287 9.371C30.798 8.975 31.1794 8.612 31.4727 8.282C31.7734 7.94467 31.9934 7.62933 32.1327 7.336C32.272 7.03533 32.3417 6.72367 32.3417 6.401C32.3417 6.005 32.2207 5.68967 31.9787 5.455C31.744 5.22033 31.4067 5.103 30.9667 5.103C30.5707 5.103 30.193 5.19833 29.8337 5.389C29.4817 5.57233 29.1517 5.81067 28.8437 6.104V4.839C29.137 4.58967 29.4634 4.388 29.8227 4.234C30.182 4.08 30.611 4.003 31.1097 4.003C31.5057 4.003 31.865 4.058 32.1877 4.168C32.5104 4.278 32.7817 4.43567 33.0017 4.641C33.229 4.839 33.4014 5.08467 33.5187 5.378C33.6434 5.664 33.7057 5.98667 33.7057 6.346C33.7057 6.742 33.6287 7.116 33.4747 7.468C33.3207 7.81267 33.0897 8.161 32.7817 8.513C32.481 8.865 32.0997 9.23167 31.6377 9.613C31.183 9.99433 30.6477 10.416 30.0317 10.878H33.7277V12Z" fill="white"/>
</svg>
