<svg width="32" height="32" viewBox="0 0 32 32" fill="none" xmlns="http://www.w3.org/2000/svg">
<path d="M17.6667 9.33329C17.6667 10.2538 16.9206 11 16.0001 11C15.0796 11 14.3334 10.2538 14.3334 9.33329C14.3334 8.41282 15.0796 7.66663 16.0001 7.66663C16.9206 7.66663 17.6667 8.41282 17.6667 9.33329ZM17.6667 22.6666C17.6667 23.5871 16.9206 24.3333 16.0001 24.3333C15.0796 24.3333 14.3334 23.5871 14.3334 22.6666C14.3334 21.7462 15.0796 21 16.0001 21C16.9206 21 17.6667 21.7462 17.6667 22.6666ZM17.6667 16C17.6667 16.9204 16.9206 17.6666 16.0001 17.6666C15.0796 17.6666 14.3334 16.9204 14.3334 16C14.3334 15.0795 15.0796 14.3333 16.0001 14.3333C16.9206 14.3333 17.6667 15.0795 17.6667 16Z" fill="#1A1B22"/>
</svg>
