<svg width="40" height="32" viewBox="0 0 40 32" fill="none" xmlns="http://www.w3.org/2000/svg">
<path d="M10.9286 18.9999C10.9286 19.284 11.0415 19.5565 11.2424 19.7575C11.4433 19.9584 11.7158 20.0713 12 20.0713C12.2842 20.0713 12.5567 19.9584 12.7576 19.7575C12.9585 19.5565 13.0714 19.284 13.0714 18.9999C13.0714 18.7157 12.9585 18.4432 12.7576 18.2423C12.5567 18.0413 12.2842 17.9285 12 17.9285C11.7158 17.9285 11.4433 18.0413 11.2424 18.2423C11.0415 18.4432 10.9286 18.7157 10.9286 18.9999ZM15.3928 18.9999C15.3928 19.284 15.5057 19.5565 15.7066 19.7575C15.9076 19.9584 16.1801 20.0713 16.4642 20.0713C16.7484 20.0713 17.0209 19.9584 17.2218 19.7575C17.4228 19.5565 17.5356 19.284 17.5356 18.9999C17.5356 18.7157 17.4228 18.4432 17.2218 18.2423C17.0209 18.0413 16.7484 17.9285 16.4642 17.9285C16.1801 17.9285 15.9076 18.0413 15.7066 18.2423C15.5057 18.4432 15.3928 18.7157 15.3928 18.9999ZM6.46436 18.9999C6.46436 19.284 6.57724 19.5565 6.77817 19.7575C6.9791 19.9584 7.25161 20.0713 7.53577 20.0713C7.81993 20.0713 8.09245 19.9584 8.29338 19.7575C8.49431 19.5565 8.60719 19.284 8.60719 18.9999C8.60719 18.7157 8.49431 18.4432 8.29338 18.2423C8.09245 18.0413 7.81993 17.9285 7.53577 17.9285C7.25161 17.9285 6.9791 18.0413 6.77817 18.2423C6.57724 18.4432 6.46436 18.7157 6.46436 18.9999ZM21.2231 15.1249C20.7186 13.9263 19.9954 12.8504 19.0736 11.9263C18.1582 11.0076 17.0714 10.2773 15.875 9.77678C14.6473 9.26116 13.3437 9 12 9H11.9554C10.6027 9.0067 9.29245 9.27455 8.06032 9.80133C6.87408 10.307 5.79754 11.0385 4.89072 11.9553C3.97778 12.8772 3.26127 13.9486 2.76574 15.1428C2.25236 16.3794 1.99343 17.6941 2.00013 19.0467C2.0077 20.5969 2.37443 22.1242 3.07154 23.5087V26.9016C3.07154 27.1739 3.17972 27.435 3.37228 27.6276C3.56483 27.8202 3.826 27.9283 4.09831 27.9283H7.49336C8.87793 28.6254 10.4052 28.9922 11.9554 28.9997H12.0022C13.3393 28.9997 14.6361 28.7408 15.8571 28.2341C17.0475 27.7396 18.1302 27.0178 19.0446 26.1092C19.9664 25.1962 20.6919 24.1293 21.1985 22.9396C21.7253 21.7074 21.9932 20.3972 21.9999 19.0445C22.0066 17.6852 21.7432 16.366 21.2231 15.1249ZM17.8504 24.9016C16.2857 26.4507 14.2098 27.3033 12 27.3033H11.9621C10.6161 27.2966 9.27905 26.9618 8.09826 26.3324L7.91077 26.2319H4.76795V23.0891L4.6675 22.9016C4.03805 21.7208 3.70323 20.3838 3.69653 19.0378C3.68761 16.8124 4.53804 14.7231 6.09829 13.1495C7.65631 11.5759 9.73887 10.7053 11.9643 10.6964H12.0022C13.1183 10.6964 14.2009 10.9129 15.2209 11.3415C16.2165 11.7589 17.1093 12.3593 17.8772 13.1272C18.6428 13.8928 19.2454 14.7879 19.6629 15.7834C20.0959 16.8146 20.3124 17.9084 20.3079 19.0378C20.2945 21.261 19.4218 23.3436 17.8504 24.9016Z" fill="white"/>
<rect x="12" width="27" height="16" rx="8" fill="#FF0200"/>
<path d="M19.564 8.766V11.076H18.497V8.766H16.319V7.82H18.497V5.499H19.564V7.82H21.742V8.766H19.564ZM26.3489 12H25.0289V5.565L22.7849 7.237V5.917L25.2049 4.113H26.3489V12ZM33.7277 12H28.6347V10.735C29.2947 10.2217 29.8594 9.767 30.3287 9.371C30.798 8.975 31.1794 8.612 31.4727 8.282C31.7734 7.94467 31.9934 7.62933 32.1327 7.336C32.272 7.03533 32.3417 6.72367 32.3417 6.401C32.3417 6.005 32.2207 5.68967 31.9787 5.455C31.744 5.22033 31.4067 5.103 30.9667 5.103C30.5707 5.103 30.193 5.19833 29.8337 5.389C29.4817 5.57233 29.1517 5.81067 28.8437 6.104V4.839C29.137 4.58967 29.4634 4.388 29.8227 4.234C30.182 4.08 30.611 4.003 31.1097 4.003C31.5057 4.003 31.865 4.058 32.1877 4.168C32.5104 4.278 32.7817 4.43567 33.0017 4.641C33.229 4.839 33.4014 5.08467 33.5187 5.378C33.6434 5.664 33.7057 5.98667 33.7057 6.346C33.7057 6.742 33.6287 7.116 33.4747 7.468C33.3207 7.81267 33.0897 8.161 32.7817 8.513C32.481 8.865 32.0997 9.23167 31.6377 9.613C31.183 9.99433 30.6477 10.416 30.0317 10.878H33.7277V12Z" fill="white"/>
</svg>
