<svg width="24" height="24" viewBox="0 0 24 24" fill="none" xmlns="http://www.w3.org/2000/svg">
<path d="M21.71 20.29L18 16.61C19.4401 14.8144 20.1375 12.5353 19.9488 10.2413C19.7601 7.94733 18.6997 5.81281 16.9855 4.27667C15.2714 2.74053 13.0338 1.91954 10.7329 1.9825C8.43207 2.04546 6.24275 2.98759 4.61517 4.61517C2.98759 6.24275 2.04546 8.43207 1.9825 10.7329C1.91954 13.0338 2.74053 15.2714 4.27667 16.9855C5.81281 18.6997 7.94733 19.7601 10.2413 19.9488C12.5353 20.1375 14.8144 19.4401 16.61 18L20.29 21.68C20.383 21.7738 20.4936 21.8482 20.6154 21.8989C20.7373 21.9497 20.868 21.9758 21 21.9758C21.132 21.9758 21.2627 21.9497 21.3846 21.8989C21.5065 21.8482 21.6171 21.7738 21.71 21.68C21.8903 21.4936 21.991 21.2444 21.991 20.985C21.991 20.7257 21.8903 20.4765 21.71 20.29ZM11 18C9.61556 18 8.26218 17.5895 7.11103 16.8203C5.95989 16.0511 5.06268 14.9579 4.53287 13.6788C4.00306 12.3997 3.86443 10.9923 4.13453 9.63439C4.40463 8.27653 5.07131 7.02925 6.05028 6.05028C7.02925 5.07131 8.27653 4.40463 9.63439 4.13453C10.9923 3.86443 12.3997 4.00306 13.6788 4.53287C14.9579 5.06268 16.0511 5.95989 16.8203 7.11103C17.5895 8.26218 18 9.61556 18 11C18 12.8565 17.2625 14.637 15.9498 15.9498C14.637 17.2625 12.8565 18 11 18Z" fill="#797981"/>
<path d="M21.7099 20.2899L17.9999 16.6099C19.44 14.8143 20.1374 12.5352 19.9487 10.2412C19.76 7.94721 18.6996 5.81269 16.9854 4.27655C15.2713 2.74041 13.0337 1.91941 10.7328 1.98237C8.43194 2.04534 6.24263 2.98747 4.61505 4.61505C2.98747 6.24263 2.04534 8.43194 1.98237 10.7328C1.91941 13.0337 2.74041 15.2713 4.27655 16.9854C5.81269 18.6996 7.94721 19.76 10.2412 19.9487C12.5352 20.1374 14.8143 19.44 16.6099 17.9999L20.2899 21.6799C20.3829 21.7736 20.4935 21.848 20.6153 21.8988C20.7372 21.9496 20.8679 21.9757 20.9999 21.9757C21.1319 21.9757 21.2626 21.9496 21.3845 21.8988C21.5063 21.848 21.6169 21.7736 21.7099 21.6799C21.8901 21.4934 21.9909 21.2442 21.9909 20.9849C21.9909 20.7256 21.8901 20.4764 21.7099 20.2899ZM10.9999 17.9999C9.61544 17.9999 8.26206 17.5894 7.11091 16.8202C5.95977 16.051 5.06256 14.9578 4.53275 13.6787C4.00293 12.3996 3.86431 10.9921 4.13441 9.63427C4.4045 8.27641 5.07119 7.02912 6.05016 6.05016C7.02912 5.07119 8.27641 4.4045 9.63427 4.13441C10.9921 3.86431 12.3996 4.00293 13.6787 4.53275C14.9578 5.06256 16.051 5.95977 16.8202 7.11091C17.5894 8.26206 17.9999 9.61544 17.9999 10.9999C17.9999 12.8564 17.2624 14.6369 15.9497 15.9497C14.6369 17.2624 12.8564 17.9999 10.9999 17.9999Z" fill="#797981"/>
</svg>
