<svg width="20" height="20" viewBox="0 0 20 20" fill="none" xmlns="http://www.w3.org/2000/svg">
<path d="M7.5 2.5H3C2.86739 2.5 2.74021 2.55268 2.64645 2.64645C2.55268 2.74021 2.5 2.86739 2.5 3V17C2.5 17.1326 2.55268 17.2598 2.64645 17.3536C2.74021 17.4473 2.86739 17.5 3 17.5H7.5M7.5 2.5V17.5M7.5 2.5H12.5M7.5 17.5H12.5M12.5 2.5H17C17.1326 2.5 17.2598 2.55268 17.3536 2.64645C17.4473 2.74021 17.5 2.86739 17.5 3V17C17.5 17.1326 17.4473 17.2598 17.3536 17.3536C17.2598 17.4473 17.1326 17.5 17 17.5H12.5M12.5 2.5V17.5" stroke="#1D6BF3" stroke-width="1.5"/>
</svg>
