<svg width="48" height="48" viewBox="0 0 48 48" fill="none" xmlns="http://www.w3.org/2000/svg">
    <g filter="url(#filter0_d_731_16142)">
        <rect x="6" y="2" width="36" height="36" rx="6" fill="white"/>
        <path d="M21.5 12.5H17C16.8674 12.5 16.7402 12.5527 16.6464 12.6464C16.5527 12.7402 16.5 12.8674 16.5 13V27C16.5 27.1326 16.5527 27.2598 16.6464 27.3536C16.7402 27.4473 16.8674 27.5 17 27.5H21.5M21.5 12.5V27.5M21.5 12.5H26.5M21.5 27.5H26.5M26.5 12.5H31C31.1326 12.5 31.2598 12.5527 31.3536 12.6464C31.4473 12.7402 31.5 12.8674 31.5 13V27C31.5 27.1326 31.4473 27.2598 31.3536 27.3536C31.2598 27.4473 31.1326 27.5 31 27.5H26.5M26.5 12.5V27.5" stroke="#1D6BF3" stroke-width="1.5"/>
        <rect x="6.5" y="2.5" width="35" height="35" rx="5.5" stroke="#5A9BFF"/>
    </g>
    <defs>
        <filter id="filter0_d_731_16142" x="0" y="0" width="48" height="48" filterUnits="userSpaceOnUse" color-interpolation-filters="sRGB">
            <feFlood flood-opacity="0" result="BackgroundImageFix"/>
            <feColorMatrix in="SourceAlpha" type="matrix" values="0 0 0 0 0 0 0 0 0 0 0 0 0 0 0 0 0 0 127 0" result="hardAlpha"/>
            <feOffset dy="4"/>
            <feGaussianBlur stdDeviation="3"/>
            <feComposite in2="hardAlpha" operator="out"/>
            <feColorMatrix type="matrix" values="0 0 0 0 0.690196 0 0 0 0 0.745098 0 0 0 0 0.772549 0 0 0 0.3 0"/>
            <feBlend mode="normal" in2="BackgroundImageFix" result="effect1_dropShadow_731_16142"/>
            <feBlend mode="normal" in="SourceGraphic" in2="effect1_dropShadow_731_16142" result="shape"/>
        </filter>
    </defs>
</svg>
