<svg width="48" height="48" viewBox="0 0 48 48" fill="none" xmlns="http://www.w3.org/2000/svg">
    <g filter="url(#filter0_d_731_16143)">
        <rect x="6" y="2" width="36" height="36" rx="6" fill="white"/>
        <path d="M25.6667 27V22.1667C25.6667 22.0341 25.7193 21.9069 25.8131 21.8131C25.9069 21.7193 26.0341 21.6667 26.1667 21.6667H31C31.1326 21.6667 31.2598 21.7193 31.3536 21.8131C31.4473 21.9069 31.5 22.0341 31.5 22.1667V27C31.5 27.1326 31.4473 27.2598 31.3536 27.3536C31.2598 27.4473 31.1326 27.5 31 27.5H26.1667C26.0341 27.5 25.9069 27.4473 25.8131 27.3536C25.7193 27.2598 25.6667 27.1326 25.6667 27ZM16.5 27V22.1667C16.5 22.0341 16.5527 21.9069 16.6464 21.8131C16.7402 21.7193 16.8674 21.6667 17 21.6667H21.8333C21.9659 21.6667 22.0931 21.7193 22.1869 21.8131C22.2807 21.9069 22.3333 22.0341 22.3333 22.1667V27C22.3333 27.1326 22.2807 27.2598 22.1869 27.3536C22.0931 27.4473 21.9659 27.5 21.8333 27.5H17C16.8674 27.5 16.7402 27.4473 16.6464 27.3536C16.5527 27.2598 16.5 27.1326 16.5 27ZM25.6667 17.8333V13C25.6667 12.8674 25.7193 12.7402 25.8131 12.6464C25.9069 12.5527 26.0341 12.5 26.1667 12.5H31C31.1326 12.5 31.2598 12.5527 31.3536 12.6464C31.4473 12.7402 31.5 12.8674 31.5 13V17.8333C31.5 17.9659 31.4473 18.0931 31.3536 18.1869C31.2598 18.2807 31.1326 18.3333 31 18.3333H26.1667C26.0341 18.3333 25.9069 18.2807 25.8131 18.1869C25.7193 18.0931 25.6667 17.9659 25.6667 17.8333ZM16.5 17.8333V13C16.5 12.8674 16.5527 12.7402 16.6464 12.6464C16.7402 12.5527 16.8674 12.5 17 12.5H21.8333C21.9659 12.5 22.0931 12.5527 22.1869 12.6464C22.2807 12.7402 22.3333 12.8674 22.3333 13V17.8333C22.3333 17.9659 22.2807 18.0931 22.1869 18.1869C22.0931 18.2807 21.9659 18.3333 21.8333 18.3333H17C16.8674 18.3333 16.7402 18.2807 16.6464 18.1869C16.5527 18.0931 16.5 17.9659 16.5 17.8333Z" stroke="#1D6BF3" stroke-width="1.5"/>
    </g>
    <defs>
        <filter id="filter0_d_731_16143" x="0" y="0" width="48" height="48" filterUnits="userSpaceOnUse" color-interpolation-filters="sRGB">
            <feFlood flood-opacity="0" result="BackgroundImageFix"/>
            <feColorMatrix in="SourceAlpha" type="matrix" values="0 0 0 0 0 0 0 0 0 0 0 0 0 0 0 0 0 0 127 0" result="hardAlpha"/>
            <feOffset dy="4"/>
            <feGaussianBlur stdDeviation="3"/>
            <feComposite in2="hardAlpha" operator="out"/>
            <feColorMatrix type="matrix" values="0 0 0 0 0.690196 0 0 0 0 0.745098 0 0 0 0 0.772549 0 0 0 0.3 0"/>
            <feBlend mode="normal" in2="BackgroundImageFix" result="effect1_dropShadow_731_16143"/>
            <feBlend mode="normal" in="SourceGraphic" in2="effect1_dropShadow_731_16143" result="shape"/>
        </filter>
    </defs>
</svg>
