<svg width="25" height="25" viewBox="0 0 25 25" fill="none" xmlns="http://www.w3.org/2000/svg">
<g clip-path="url(#clip0_1_1226)">
<path d="M23.9023 0.793031C23.7148 0.60556 23.4605 0.500244 23.1953 0.500244C22.9302 0.500244 22.6759 0.60556 22.4883 0.793031L12.1953 11.086L1.90234 0.793031C1.71482 0.60556 1.46051 0.500244 1.19534 0.500244C0.930179 0.500244 0.675871 0.60556 0.488343 0.793031C0.300872 0.980558 0.195557 1.23487 0.195557 1.50003C0.195557 1.76519 0.300872 2.0195 0.488343 2.20703L10.7813 12.5L0.488343 22.793C0.300872 22.9806 0.195557 23.2349 0.195557 23.5C0.195557 23.7652 0.300872 24.0195 0.488343 24.207C0.675871 24.3945 0.930179 24.4998 1.19534 24.4998C1.46051 24.4998 1.71482 24.3945 1.90234 24.207L12.1953 13.914L22.4883 24.207C22.6759 24.3945 22.9302 24.4998 23.1953 24.4998C23.4605 24.4998 23.7148 24.3945 23.9023 24.207C24.0898 24.0195 24.1951 23.7652 24.1951 23.5C24.1951 23.2349 24.0898 22.9806 23.9023 22.793L13.6093 12.5L23.9023 2.20703C24.0898 2.0195 24.1951 1.76519 24.1951 1.50003C24.1951 1.23487 24.0898 0.980558 23.9023 0.793031Z" fill="#1A1B22"/>
</g>
<defs>
<clipPath id="clip0_1_1226">
<rect width="24" height="24" fill="white" transform="translate(0.195312 0.5)"/>
</clipPath>
</defs>
</svg>
