<svg width="24" height="24" viewBox="0 0 24 24" fill="none" xmlns="http://www.w3.org/2000/svg">
<path fill-rule="evenodd" clip-rule="evenodd" d="M2 20.3009C2 20.7252 2.16857 21.1322 2.46863 21.4322C2.76869 21.7323 3.17565 21.9009 3.6 21.9009L21.2 21.9009C21.6243 21.9009 22.0313 21.7323 22.3314 21.4322C22.6314 21.1322 22.8 20.7252 22.8 20.3009L22.8 8.30088C22.8 8.0887 22.7157 7.88522 22.5657 7.73519C22.4157 7.58516 22.2122 7.50088 22 7.50088C21.7878 7.50088 21.5843 7.58516 21.4343 7.73519C21.2843 7.88522 21.2 8.0887 21.2 8.30088L21.2 20.3009L3.6 20.3009L3.6 8.30088C3.6 8.0887 3.51571 7.88522 3.36568 7.73519C3.21566 7.58516 3.01217 7.50088 2.8 7.50088C2.58783 7.50088 2.38434 7.58516 2.23431 7.73519C2.08428 7.88522 2 8.08871 2 8.30088L2 20.3009Z" fill="#1A1B22"/>
<path d="M16.8496 12C16.8496 12.2124 16.7652 12.4162 16.615 12.5664L13.015 16.1664C12.9407 16.2409 12.8524 16.3 12.7552 16.3403C12.658 16.3807 12.5538 16.4014 12.4486 16.4014C12.3434 16.4014 12.2392 16.3807 12.142 16.3403C12.0448 16.3 11.9565 16.2409 11.8822 16.1664L8.2822 12.5664C8.13198 12.4162 8.04759 12.2124 8.04759 12C8.04759 11.7876 8.13198 11.5838 8.2822 11.4336C8.43242 11.2834 8.63616 11.199 8.8486 11.199C9.06104 11.199 9.26478 11.2834 9.415 11.4336L11.6486 13.6688L11.6486 2.8C11.6486 2.58783 11.7329 2.38434 11.8829 2.23431C12.0329 2.08429 12.2364 2 12.4486 2C12.6608 2 12.8643 2.08429 13.0143 2.23431C13.1643 2.38434 13.2486 2.58783 13.2486 2.8L13.2486 13.6688L15.4822 11.4336C15.6324 11.2834 15.8362 11.199 16.0486 11.199C16.261 11.199 16.4648 11.2834 16.615 11.4336C16.7652 11.5838 16.8496 11.7876 16.8496 12Z" fill="#1A1B22"/>
</svg>
