<svg width="20" height="20" viewBox="0 0 20 20" fill="none" xmlns="http://www.w3.org/2000/svg">
  <g clip-path="url(#clip0_836_1459)">
    <path d="M18.3544 1.64598C17.8331 1.12556 17.1267 0.833252 16.3901 0.833252C15.6536 0.833252 14.9471 1.12556 14.4259 1.64598L1.95657 14.1153C1.59949 14.4704 1.31637 14.8927 1.12357 15.3579C0.93078 15.8231 0.832149 16.3219 0.833386 16.8255V18.3995C0.833386 18.6028 0.914161 18.7979 1.05794 18.9416C1.20172 19.0854 1.39673 19.1662 1.60007 19.1662H3.17406C3.67759 19.1676 4.1764 19.0691 4.64161 18.8765C5.10682 18.6838 5.5292 18.4008 5.88428 18.0438L18.3544 5.57369C18.8745 5.0525 19.1667 4.34621 19.1667 3.60984C19.1667 2.87347 18.8745 2.16718 18.3544 1.64598ZM4.8002 16.9597C4.36779 17.3892 3.78355 17.6311 3.17406 17.6328H2.36675V16.8255C2.36597 16.5234 2.42514 16.2241 2.54081 15.9449C2.65649 15.6658 2.82639 15.4124 3.04066 15.1994L12.5038 5.73623L14.2672 7.4996L4.8002 16.9597ZM17.2695 4.4896L15.3482 6.41167L13.5848 4.65214L15.5069 2.73007C15.6227 2.61454 15.7601 2.52294 15.9113 2.46051C16.0625 2.39808 16.2245 2.36604 16.388 2.36622C16.5516 2.3664 16.7135 2.39879 16.8646 2.46155C17.0156 2.52431 17.1528 2.6162 17.2684 2.73199C17.3839 2.84777 17.4755 2.98518 17.5379 3.13636C17.6003 3.28754 17.6324 3.44954 17.6322 3.61311C17.632 3.77668 17.5996 3.9386 17.5369 4.08965C17.4741 4.2407 17.3822 4.37791 17.2664 4.49344L17.2695 4.4896Z" fill="#797981"/>
  </g>
  <defs>
    <clipPath id="clip0_836_1459">
      <rect width="20" height="20" fill="white"/>
    </clipPath>
  </defs>
</svg>

