<svg width="24" height="25" viewBox="0 0 24 25" fill="none" xmlns="http://www.w3.org/2000/svg">
<g clip-path="url(#clip0_599_1130)">
<path fill-rule="evenodd" clip-rule="evenodd" d="M4.80001 2.09998C4.37567 2.09998 3.9687 2.26855 3.66864 2.5686C3.36858 2.86866 3.20001 3.27563 3.20001 3.69998V21.3C3.20001 21.7243 3.36858 22.1313 3.66864 22.4313C3.9687 22.7314 4.37567 22.9 4.80001 22.9H16.8C17.0122 22.9 17.2157 22.8157 17.3657 22.6657C17.5157 22.5156 17.6 22.3121 17.6 22.1C17.6 21.8878 17.5157 21.6843 17.3657 21.5343C17.2157 21.3843 17.0122 21.3 16.8 21.3H4.80001V3.69998H16.8C17.0122 3.69998 17.2157 3.61569 17.3657 3.46566C17.5157 3.31563 17.6 3.11215 17.6 2.89998C17.6 2.6878 17.5157 2.48432 17.3657 2.33429C17.2157 2.18426 17.0122 2.09998 16.8 2.09998H4.80001ZM20.1664 8.33358C20.0162 8.18336 19.8125 8.09896 19.6 8.09896C19.3876 8.09896 19.1838 8.18336 19.0336 8.33358C18.8834 8.48379 18.799 8.68753 18.799 8.89998C18.799 9.11242 18.8834 9.31616 19.0336 9.46638L21.2688 11.7H10.4C10.1878 11.7 9.98436 11.7843 9.83433 11.9343C9.6843 12.0843 9.60001 12.2878 9.60001 12.5C9.60001 12.7121 9.6843 12.9156 9.83433 13.0657C9.98436 13.2157 10.1878 13.3 10.4 13.3H21.2688L19.0336 15.5336C18.8834 15.6838 18.799 15.8875 18.799 16.1C18.799 16.3124 18.8834 16.5162 19.0336 16.6664C19.1838 16.8166 19.3876 16.901 19.6 16.901C19.8125 16.901 20.0162 16.8166 20.1664 16.6664L23.7664 13.0664C23.8409 12.9921 23.9 12.9038 23.9404 12.8066C23.9807 12.7094 24.0014 12.6052 24.0014 12.5C24.0014 12.3947 23.9807 12.2906 23.9404 12.1934C23.9 12.0962 23.8409 12.0079 23.7664 11.9336L20.1664 8.33358Z" fill="#B5B5B7"/>
</g>
<defs>
<clipPath id="clip0_599_1130">
<rect width="24" height="24" fill="white" transform="translate(0 0.5)"/>
</clipPath>
</defs>
</svg>
