<svg width="25" height="25" viewBox="0 0 25 25" fill="none" xmlns="http://www.w3.org/2000/svg">
<path d="M19.646 13.8282V10.3216C19.6444 8.75922 19.0787 7.2478 18.0492 6.05501C17.0197 4.86223 15.5927 4.06504 14.021 3.80465V2.6027C14.021 2.31025 13.9025 2.02977 13.6915 1.82297C13.4805 1.61618 13.1944 1.5 12.896 1.5C12.5976 1.5 12.3115 1.61618 12.1005 1.82297C11.8895 2.02977 11.771 2.31025 11.771 2.6027V3.80465C10.1993 4.06504 8.77234 4.86223 7.7428 6.05501C6.71327 7.2478 6.14761 8.75922 6.146 10.3216V13.8282C5.4895 14.0557 4.92087 14.4767 4.51805 15.0334C4.11523 15.5901 3.89795 16.2553 3.896 16.9378V19.1432C3.896 19.4357 4.01452 19.7162 4.2255 19.923C4.43648 20.1298 4.72263 20.2459 5.021 20.2459H8.5535C8.81256 21.1803 9.37812 22.0052 10.1629 22.5933C10.9477 23.1814 11.9081 23.5 12.896 23.5C13.8839 23.5 14.8443 23.1814 15.6291 22.5933C16.4139 22.0052 16.9794 21.1803 17.2385 20.2459H20.771C21.0694 20.2459 21.3555 20.1298 21.5665 19.923C21.7775 19.7162 21.896 19.4357 21.896 19.1432V16.9378C21.894 16.2553 21.6768 15.5901 21.2739 15.0334C20.8711 14.4767 20.3025 14.0557 19.646 13.8282ZM8.396 10.3216C8.396 9.15179 8.8701 8.02989 9.71402 7.2027C10.5579 6.37551 11.7025 5.91081 12.896 5.91081C14.0895 5.91081 15.2341 6.37551 16.078 7.2027C16.9219 8.02989 17.396 9.15179 17.396 10.3216V13.6297H8.396V10.3216ZM12.896 21.3486C12.5033 21.3463 12.1181 21.2433 11.7787 21.0499C11.4392 20.8564 11.1573 20.5792 10.961 20.2459H14.831C14.6347 20.5792 14.3528 20.8564 14.0133 21.0499C13.6739 21.2433 13.2887 21.3463 12.896 21.3486ZM19.646 18.0405H6.146V16.9378C6.146 16.6454 6.26452 16.3649 6.4755 16.1581C6.68648 15.9513 6.97263 15.8351 7.271 15.8351H18.521C18.8194 15.8351 19.1055 15.9513 19.3165 16.1581C19.5275 16.3649 19.646 16.6454 19.646 16.9378V18.0405Z" fill="#1A1B22"/>
</svg>
